# xmcd
#
# Track frame offsets: 
#        150
#        13284
#        31216
#        47700
#        63971
#        71862
#        86143
#        101339
#        107160
#        121717
#        149640
#        169538
#        179219
#        188744
#        201380
#        212244
#
# Disc length: 3021 seconds
#
# Revision: 0
# Processed by: cddbd v1.5.2PL0 Copyright (c) Steve Scherf et al.
# Submitted via: ExactAudioCopy v0.95a5
#
DISCID=f20bcb10
DTITLE=Tamas Wells - A MARK ON THE PANE
DYEAR=2004
DGENRE=Alternative
TTITLE0=when we do fail abigail
TTITLE1=broken by the rise
TTITLE2=chandeliers
TTITLE3=reduced to clear
TTITLE4=petit mal at a grand occasion
TTITLE5=even in the crowds
TTITLE6=annalee argyle
TTITLE7=segue in GM
TTITLE8=if you bring me aubergines
TTITLE9=a dark horse will either run first or last
TTITLE10=reduced to clear
TTITLE11=41 union drive
TTITLE12=even through
TTITLE13=beauty cream
TTITLE14=stitch in time
TTITLE15=instrumental
EXTD=
EXTT0=
EXTT1=
EXTT2=
EXTT3=
EXTT4=
EXTT5=
EXTT6=
EXTT7=
EXTT8=
EXTT9=
EXTT10=
EXTT11=
EXTT12=
EXTT13=
EXTT14=
EXTT15=
PLAYORDER=
